<?xml version="1.0" encoding="UTF-8" standalone="no"?>
<svg
   version="1.1"
   id="Layer_1"
   x="0px"
   y="0px"
   width="224px"
   height="112.3px"
   viewBox="-847 484.7 224 112.3"
   style="enable-background:new -847 484.7 224 112.3;"
   xml:space="preserve"
   sodipodi:docname="face.svg"
   inkscape:version="1.4.2 (f4327f4, 2025-05-13)"
   xmlns:inkscape="http://www.inkscape.org/namespaces/inkscape"
   xmlns:sodipodi="http://sodipodi.sourceforge.net/DTD/sodipodi-0.dtd"
   xmlns="http://www.w3.org/2000/svg"
   xmlns:svg="http://www.w3.org/2000/svg"><defs
   id="defs24" /><sodipodi:namedview
   id="namedview24"
   pagecolor="#ffffff"
   bordercolor="#000000"
   borderopacity="0.25"
   inkscape:showpageshadow="2"
   inkscape:pageopacity="0.0"
   inkscape:pagecheckerboard="0"
   inkscape:deskcolor="#d1d1d1"
   inkscape:zoom="7.613535"
   inkscape:cx="44.985674"
   inkscape:cy="56.150001"
   inkscape:window-width="1920"
   inkscape:window-height="1057"
   inkscape:window-x="1912"
   inkscape:window-y="-8"
   inkscape:window-maximized="1"
   inkscape:current-layer="Layer_1" />
	<style
   type="text/css"
   id="style1">
		.st0{fill:#bd93f9;}
		.st1{fill:#44475a;}
		.st2{fill:#44475a;}
		.st3{fill:#44475a;}
		.st4{fill:#44475a;}
		.st5{fill:#44475a;}
		.st6{fill:#8be9fd;}
		.st7{fill:#44475a;}
		.st8{fill:#44475a;}
		.st9{fill:#44475a;}
		.st10{fill:#44475a;}
		.st11{fill:#44475a;}
	</style>
	<g
   id="g3">
		<g
   id="g2">
			<path
   class="st0"
   d="M-819.7,538.3c-14.5,0-26.3-11.8-26.3-26.3s11.8-26.3,26.3-26.3s26.3,11.8,26.3,26.3    S-805.2,538.3-819.7,538.3z"
   id="path1"
   style="fill:#ff00e6;fill-opacity:1" />
			
		</g>
		
	</g>
	<g
   id="g5">
		<g
   id="g4">
			<path
   class="st0"
   d="M-763.2,538.2c-14.5,0-26.3-11.8-26.3-26.3c0-14.5,11.8-26.3,26.3-26.3S-737,497.5-737,512    C-737,526.5-748.7,538.2-763.2,538.2z"
   id="path3"
   style="fill:#ff00e6;fill-opacity:1" />
			
		</g>
		
	</g>
	<g
   id="g8">
		<g
   id="g7">
			<path
   class="st0"
   d="M-706.7,538.8c-14.5,0-26.3-11.8-26.3-26.3s11.8-26.3,26.3-26.3s26.3,11.8,26.3,26.3    S-692.2,538.8-706.7,538.8z"
   id="path6"
   style="fill:#ff00e6;fill-opacity:1" />
			
		</g>
		
	</g>
	<g
   id="g12">
		<g
   id="g11">
			<g
   id="g10">
				<path
   class="st0"
   d="M-650.2,539.5c-14.5,0-26.3-11.8-26.3-26.3s11.8-26.3,26.3-26.3s26.3,11.8,26.3,26.3     S-635.7,539.5-650.2,539.5z"
   id="path9"
   style="fill:#ff00e6;fill-opacity:1" />
				
			</g>
			
		</g>
	</g>
	<g
   id="g14">
		<g
   id="g13">
			<path
   class="st6"
   d="M-819.7,596.1c-14.5,0-26.3-11.8-26.3-26.3s11.8-26.3,26.3-26.3s26.3,11.8,26.3,26.3    S-805.2,596.1-819.7,596.1z"
   id="path12" />
			
		</g>
		
	</g>
	<g
   id="g16">
		<g
   id="g15">
			<path
   class="st6"
   d="M-763.2,595.9c-14.5,0-26.3-11.8-26.3-26.3s11.8-26.3,26.3-26.3s26.3,11.8,26.3,26.3    S-748.7,595.9-763.2,595.9z"
   id="path14" />
			
		</g>
		
	</g>
	<g
   id="g19">
		<g
   id="g18">
			<path
   class="st6"
   d="M-706.7,595.9c-14.5,0-26.3-11.8-26.3-26.3s11.8-26.3,26.3-26.3s26.3,11.8,26.3,26.3    S-692.2,595.9-706.7,595.9z"
   id="path17" />
			
		</g>
		
	</g>
	<g
   id="g24">
		<g
   id="g23">
			<g
   id="g22">
				<g
   id="g21">
					<path
   class="st6"
   d="M-650.2,596c-14.5,0-26.3-11.8-26.3-26.3s11.8-26.3,26.3-26.3s26.3,11.8,26.3,26.3S-635.7,596-650.2,596z"
   id="path20" />
					
				</g>
				
			</g>
		</g>
	</g>
</svg>
